# Blender 5.1.1
# www.blender.org
mtllib tree.mtl
o 柱体
v -0.000000 -1.000000 -2.129526
v 0.000000 4.781860 -0.048890
v 1.064763 -1.282874 -1.844224
v 0.024445 4.781860 -0.042340
v 1.844224 -1.000000 -1.064763
v 0.042340 4.781860 -0.024445
v 2.129526 -1.282874 -0.000000
v 0.048890 4.781860 0.000000
v 1.844224 -1.000000 1.064763
v 0.042340 4.781860 0.024445
v 1.156348 -1.508366 1.826966
v 0.024445 4.781860 0.042340
v -0.000000 -1.000000 2.129526
v 0.000000 4.781860 0.048890
v -1.041107 -1.148353 2.052331
v -0.024445 4.781860 0.042340
v -1.844224 -1.000000 1.064763
v -0.042340 4.781860 0.024445
v -2.090941 -1.506582 0.046598
v -0.048890 4.781860 0.000000
v -1.844224 -1.000000 -1.064763
v -0.042340 4.781860 -0.024445
v -1.157130 -1.228229 -1.888513
v -0.024445 4.781860 -0.042340
v 0.000000 0.445465 -0.770219
v 0.000000 1.890930 -0.540439
v 0.000000 3.336395 -0.310658
v 0.155329 3.336395 -0.269038
v 0.270219 1.890930 -0.468034
v 0.385110 0.445465 -0.667030
v 0.269038 3.336395 -0.155329
v 0.468034 1.890930 -0.270219
v 0.667030 0.445465 -0.385110
v 0.310658 3.336395 0.000000
v 0.540439 1.890930 0.000000
v 0.770219 0.445465 0.000000
v 0.269038 3.336395 0.155329
v 0.468034 1.890930 0.270219
v 0.667030 0.445465 0.385110
v 0.155329 3.336395 0.269038
v 0.270219 1.890930 0.468034
v 0.385110 0.445465 0.667030
v 0.000000 3.336395 0.310658
v 0.000000 1.890930 0.540439
v 0.000000 0.445465 0.770219
v -0.155329 3.336395 0.269038
v -0.270219 1.890930 0.468034
v -0.385110 0.445465 0.667030
v -0.269038 3.336395 0.155329
v -0.468034 1.890930 0.270219
v -0.667030 0.445465 0.385110
v -0.310658 3.336395 0.000000
v -0.540439 1.890930 0.000000
v -0.770219 0.445465 0.000000
v -0.269038 3.336395 -0.155329
v -0.468034 1.890930 -0.270219
v -0.667030 0.445465 -0.385110
v -0.155329 3.336395 -0.269038
v -0.270219 1.890930 -0.468034
v -0.385110 0.445465 -0.667030
v 0.000000 3.383768 -0.721810
v 0.360905 3.100894 -0.625106
v 0.625106 3.383768 -0.360905
v 0.721810 3.100894 0.000000
v 0.625106 3.383768 0.360905
v 0.360905 3.100894 0.625106
v 0.000000 3.383768 0.721810
v -0.337249 3.235415 0.833213
v -0.625106 3.383768 0.360905
v -0.721810 3.100894 0.000000
v -0.625106 3.383768 -0.360905
v -0.360905 3.100894 -0.625106
v 0.000000 1.952577 -1.039665
v 0.519833 1.669703 -0.900376
v 0.900376 1.952577 -0.519833
v 1.039665 1.669703 0.000000
v 0.900376 1.952577 0.519833
v 0.519833 1.669703 0.900376
v 0.000000 1.952577 1.039665
v -0.496176 1.804224 1.108483
v -0.900376 1.952577 0.519833
v -1.039665 1.669703 0.000000
v -0.900376 1.952577 -0.519833
v -0.519833 1.669703 -0.900376
v 0.000000 0.538995 -1.519156
v 0.759578 0.256121 -1.315627
v 1.315627 0.538995 -0.759578
v 1.519156 0.256121 0.000000
v 1.315627 0.538995 0.759578
v 0.759578 0.256121 1.315627
v 0.000000 0.538995 1.519156
v -0.735922 0.390642 1.523734
v -1.315627 0.538995 0.759578
v -1.519156 0.256121 0.000000
v -1.315627 0.538995 -0.759578
v -0.759578 0.256121 -1.315627
v 0.242893 -1.840658 -0.242893
v -0.000000 -1.840659 -0.343503
v -0.000000 -3.111653 -0.485692
v -0.000000 -0.569664 -0.485692
v 0.343436 -3.111653 -0.343436
v 0.343436 -0.569664 -0.343436
v 0.485692 -3.111653 0.000000
v 0.485692 -0.569664 0.000000
v 0.343436 -3.111653 0.343436
v 0.343436 -0.569664 0.343436
v -0.000000 -3.111653 0.485692
v -0.000000 -0.569664 0.485692
v -0.343436 -3.111653 0.343436
v -0.343436 -0.569664 0.343436
v -0.485692 -3.111653 0.000000
v -0.485692 -0.569664 0.000000
v -0.343436 -3.111653 -0.343436
v -0.343436 -0.569664 -0.343436
v 0.343503 -1.840658 0.000000
v 0.242893 -1.840658 0.242893
v -0.000000 -1.840658 0.343503
v -0.242893 -1.840658 0.242893
v -0.343503 -1.840658 0.000000
v -0.242893 -1.840658 -0.242893
vn 0.4867 0.3750 -0.7890
vn 0.4400 0.3750 -0.8160
vn 0.9267 0.3750 0.0269
vn 0.9267 0.3750 -0.0269
vn 0.4400 0.3750 0.8160
vn 0.4867 0.3750 0.7890
vn 0.0806 0.4368 0.8959
vn -0.7014 0.4307 0.5679
vn -0.9267 0.3750 -0.0269
vn -0.9267 0.3750 0.0269
vn -0.0000 1.0000 -0.0000
vn -0.4400 0.3750 -0.8160
vn -0.4867 0.3750 -0.7890
vn 0.0013 -1.0000 -0.0097
vn -0.2557 0.6531 -0.7128
vn -0.3522 0.5296 -0.7717
vn -0.3932 0.4133 -0.8213
vn -0.4950 0.6564 -0.5693
vn -0.4922 0.5296 -0.6909
vn -0.5147 0.4133 -0.7512
vn -0.8066 0.5909 0.0114
vn -0.8444 0.5296 -0.0808
vn -0.9079 0.4133 -0.0701
vn -0.8068 0.5906 -0.0120
vn -0.8444 0.5296 0.0808
vn -0.9079 0.4133 0.0701
vn -0.5224 0.6718 0.5250
vn -0.5891 0.5774 0.5652
vn -0.6635 0.4636 0.5872
vn -0.1612 0.6804 0.7149
vn -0.1406 0.5900 0.7950
vn -0.0726 0.4790 0.8748
vn 0.3832 0.6045 0.6984
vn 0.3522 0.5296 0.7717
vn 0.3932 0.4133 0.8213
vn 0.4144 0.6053 0.6796
vn 0.4922 0.5296 0.6909
vn 0.5147 0.4133 0.7512
vn 0.7698 0.6329 0.0828
vn 0.8444 0.5296 0.0808
vn 0.9079 0.4133 0.0701
vn 0.7698 0.6329 -0.0828
vn 0.8444 0.5296 -0.0808
vn 0.9079 0.4133 -0.0701
vn 0.4566 0.6329 -0.6253
vn 0.4922 0.5296 -0.6909
vn 0.5147 0.4133 -0.7512
vn 0.3132 0.6329 -0.7080
vn 0.3522 0.5296 -0.7717
vn 0.3932 0.4133 -0.8213
vn 0.4953 -0.8651 0.0794
vn -0.1789 -0.8651 0.4687
vn 0.3164 -0.8651 -0.3892
vn 0.3164 -0.8651 0.3892
vn -0.1298 -0.9787 -0.1589
vn 0.2885 -0.9575 0.0012
vn -0.4953 -0.8651 -0.0794
vn 0.1789 -0.8651 -0.4687
vn -0.3164 -0.8651 0.3892
vn -0.3164 -0.8651 -0.3892
vn 0.1789 -0.8651 0.4687
vn -0.4953 -0.8651 0.0794
vn -0.3519 -0.9337 0.0657
vn 0.1191 -0.9337 0.3376
vn -0.2328 -0.9337 -0.2719
vn -0.2328 -0.9337 0.2719
vn 0.1191 -0.9337 -0.3376
vn -0.3519 -0.9337 -0.0657
vn 0.1899 -0.9817 0.0161
vn -0.1054 -0.9888 -0.1058
vn 0.2328 -0.9337 0.2719
vn 0.2328 -0.9337 -0.2719
vn -0.1191 -0.9337 0.3376
vn 0.3519 -0.9337 0.0657
vn -0.2404 -0.9707 0.0021
vn 0.1184 -0.9707 0.2093
vn -0.1221 -0.9707 -0.2072
vn -0.1221 -0.9707 0.2072
vn 0.1184 -0.9707 -0.2093
vn -0.2404 -0.9707 -0.0021
vn 0.1266 -0.9906 0.0515
vn -0.1052 -0.9930 -0.0542
vn 0.1221 -0.9707 0.2072
vn 0.1221 -0.9707 -0.2072
vn -0.1184 -0.9707 0.2093
vn 0.2404 -0.9707 0.0021
vn 0.9190 0.1028 -0.3807
vn 0.3807 -0.1028 -0.9190
vn 0.9190 0.1028 0.3807
vn 0.9190 -0.1028 -0.3807
vn 0.3807 0.1028 0.9190
vn 0.9190 -0.1028 0.3807
vn -0.3807 0.1028 0.9190
vn 0.3807 -0.1028 0.9190
vn -0.9190 0.1028 0.3807
vn -0.3807 -0.1028 0.9190
vn -0.9190 0.1028 -0.3807
vn -0.9190 -0.1028 0.3807
vn -0.3807 0.1028 -0.9190
vn -0.9190 -0.1028 -0.3807
vn 0.3807 0.1028 -0.9190
vn -0.3807 -0.1028 -0.9190
vn -0.0000 -1.0000 -0.0000
vt 1.000000 0.879097
vt 1.000000 1.000000
vt 0.916667 1.000000
vt 0.916667 0.879097
vt 0.833333 1.000000
vt 0.833333 0.879097
vt 0.750000 1.000000
vt 0.750000 0.879097
vt 0.666667 1.000000
vt 0.666667 0.879097
vt 0.583333 1.000000
vt 0.583333 0.879097
vt 0.500000 1.000000
vt 0.500000 0.879097
vt 0.416667 1.000000
vt 0.416667 0.879097
vt 0.333333 1.000000
vt 0.333333 0.879097
vt 0.250000 1.000000
vt 0.250000 0.879097
vt 0.166667 1.000000
vt 0.166667 0.879097
vt 0.370000 0.457846
vt 0.250000 0.490000
vt 0.130000 0.457846
vt 0.042154 0.370000
vt 0.010000 0.250000
vt 0.042154 0.130000
vt 0.130000 0.042154
vt 0.250000 0.010000
vt 0.370000 0.042154
vt 0.457846 0.130000
vt 0.490000 0.250000
vt 0.457846 0.370000
vt 0.083333 1.000000
vt 0.083333 0.879097
vt 0.000000 1.000000
vt 0.000000 0.879097
vt 0.750000 0.490000
vt 0.870000 0.457846
vt 0.957846 0.370000
vt 0.990000 0.250000
vt 0.957846 0.130000
vt 0.870000 0.042154
vt 0.750000 0.010000
vt 0.630000 0.042154
vt 0.542154 0.130000
vt 0.510000 0.250000
vt 0.542154 0.370000
vt 0.630000 0.457846
vt 0.083333 0.500000
vt 0.083333 0.625000
vt 0.000000 0.625000
vt 0.000000 0.500000
vt 0.083333 0.633088
vt 0.083333 0.750000
vt 0.000000 0.750000
vt 0.000000 0.633088
vt 0.083333 0.755331
vt 0.083333 0.875000
vt 0.000000 0.875000
vt 0.000000 0.755331
vt 0.166667 0.500000
vt 0.166667 0.625000
vt 0.166667 0.633088
vt 0.166667 0.750000
vt 0.166667 0.755331
vt 0.166667 0.875000
vt 0.250000 0.500000
vt 0.250000 0.625000
vt 0.250000 0.633088
vt 0.250000 0.750000
vt 0.250000 0.755331
vt 0.250000 0.875000
vt 0.333333 0.500000
vt 0.333333 0.625000
vt 0.333333 0.633088
vt 0.333333 0.750000
vt 0.333333 0.755331
vt 0.333333 0.875000
vt 0.416667 0.500000
vt 0.416667 0.625000
vt 0.416667 0.633088
vt 0.416667 0.750000
vt 0.416667 0.755331
vt 0.416667 0.875000
vt 0.500000 0.500000
vt 0.500000 0.625000
vt 0.500000 0.633088
vt 0.500000 0.750000
vt 0.500000 0.755331
vt 0.500000 0.875000
vt 0.583333 0.500000
vt 0.583333 0.625000
vt 0.583333 0.633088
vt 0.583333 0.750000
vt 0.583333 0.755331
vt 0.583333 0.875000
vt 0.666667 0.500000
vt 0.666667 0.625000
vt 0.666667 0.633088
vt 0.666667 0.750000
vt 0.666667 0.755331
vt 0.666667 0.875000
vt 0.750000 0.500000
vt 0.750000 0.625000
vt 0.750000 0.633088
vt 0.750000 0.750000
vt 0.750000 0.755331
vt 0.750000 0.875000
vt 0.833333 0.500000
vt 0.833333 0.625000
vt 0.833333 0.633088
vt 0.833333 0.750000
vt 0.833333 0.755331
vt 0.833333 0.875000
vt 0.916667 0.500000
vt 0.916667 0.625000
vt 0.916667 0.633088
vt 0.916667 0.750000
vt 0.916667 0.755331
vt 0.916667 0.875000
vt 1.000000 0.500000
vt 1.000000 0.625000
vt 1.000000 0.633088
vt 1.000000 0.750000
vt 1.000000 0.755331
vt 1.000000 0.875000
vt 0.875000 0.500000
vt 0.875000 0.750000
vt 0.750000 0.500000
vt 0.981703 0.750000
vt 0.875000 1.000000
vt 0.625000 0.750000
vt 0.625000 0.500000
vt 0.750000 1.000000
vt 0.500000 0.750000
vt 0.500000 0.500000
vt 0.625000 1.000000
vt 0.375000 0.750000
vt 0.375000 0.500000
vt 0.500000 1.000000
vt 0.250000 0.750000
vt 0.250000 0.500000
vt 0.375000 1.000000
vt 0.125000 0.750000
vt 0.125000 0.500000
vt 0.250000 1.000000
vt 0.419706 0.419706
vt 0.080294 0.419706
vt 0.080294 0.080294
vt 0.419706 0.080294
vt 0.018297 0.750000
vt 0.000000 0.500000
vt 0.125000 1.000000
vt 0.000000 1.000000
vt 0.919706 0.419706
vt 0.919706 0.080294
vt 0.580294 0.080294
vt 0.580294 0.419706
s 0
usemtl 材质
f 101/129/87 97/130/87 115/108/87 103/131/87
f 98/132/88 100/2/88 102/133/88 97/130/88
f 103/131/89 115/108/89 116/134/89 105/135/89
f 97/130/90 102/133/90 104/136/90 115/108/90
f 105/135/91 116/134/91 117/137/91 107/138/91
f 115/108/92 104/136/92 106/139/92 116/134/92
f 107/138/93 117/137/93 118/140/93 109/141/93
f 116/134/94 106/139/94 108/142/94 117/137/94
f 109/141/95 118/140/95 119/143/95 111/144/95
f 117/137/96 108/142/96 110/145/96 118/140/96
f 111/144/97 119/143/97 120/146/97 113/147/97
f 118/140/98 110/145/98 112/148/98 119/143/98
f 113/147/99 120/146/99 98/153/99 99/154/99
f 119/143/100 112/148/100 114/155/100 120/146/100
f 99/123/101 98/132/101 97/130/101 101/129/101
f 120/146/102 114/155/102 100/156/102 98/153/102
f 99/39/103 101/157/103 103/42/103 105/158/103 107/45/103 109/159/103 111/48/103 113/160/103
usemtl 材质.001
f 61/1/1 2/2/1 4/3/1 62/4/1
f 62/4/2 4/3/2 6/5/2 63/6/2
f 63/6/3 6/5/3 8/7/3 64/8/3
f 64/8/4 8/7/4 10/9/4 65/10/4
f 65/10/5 10/9/5 12/11/5 66/12/5
f 66/12/6 12/11/6 14/13/6 67/14/6
f 67/14/7 14/13/7 16/15/7 68/16/7
f 68/16/8 16/15/8 18/17/8 69/18/8
f 69/18/9 18/17/9 20/19/9 70/20/9
f 70/20/10 20/19/10 22/21/10 71/22/10
f 4/23/11 2/24/11 24/25/11 22/26/11 20/27/11 18/28/11 16/29/11 14/30/11 12/31/11 10/32/11 8/33/11 6/34/11
f 71/22/12 22/21/12 24/35/12 72/36/12
f 72/36/13 24/35/13 2/37/13 61/38/13
f 1/39/14 3/40/14 5/41/14 7/42/14 9/43/14 11/44/14 13/45/14 15/46/14 17/47/14 19/48/14 21/49/14 23/50/14
f 23/51/15 60/52/15 25/53/15 1/54/15
f 96/55/16 59/56/16 26/57/16 85/58/16
f 84/59/17 58/60/17 27/61/17 73/62/17
f 21/63/18 57/64/18 60/52/18 23/51/18
f 95/65/19 56/66/19 59/56/19 96/55/19
f 83/67/20 55/68/20 58/60/20 84/59/20
f 19/69/21 54/70/21 57/64/21 21/63/21
f 94/71/22 53/72/22 56/66/22 95/65/22
f 82/73/23 52/74/23 55/68/23 83/67/23
f 17/75/24 51/76/24 54/70/24 19/69/24
f 93/77/25 50/78/25 53/72/25 94/71/25
f 81/79/26 49/80/26 52/74/26 82/73/26
f 15/81/27 48/82/27 51/76/27 17/75/27
f 92/83/28 47/84/28 50/78/28 93/77/28
f 80/85/29 46/86/29 49/80/29 81/79/29
f 13/87/30 45/88/30 48/82/30 15/81/30
f 91/89/31 44/90/31 47/84/31 92/83/31
f 79/91/32 43/92/32 46/86/32 80/85/32
f 11/93/33 42/94/33 45/88/33 13/87/33
f 90/95/34 41/96/34 44/90/34 91/89/34
f 78/97/35 40/98/35 43/92/35 79/91/35
f 9/99/36 39/100/36 42/94/36 11/93/36
f 89/101/37 38/102/37 41/96/37 90/95/37
f 77/103/38 37/104/38 40/98/38 78/97/38
f 7/105/39 36/106/39 39/100/39 9/99/39
f 88/107/40 35/108/40 38/102/40 89/101/40
f 76/109/41 34/110/41 37/104/41 77/103/41
f 5/111/42 33/112/42 36/106/42 7/105/42
f 87/113/43 32/114/43 35/108/43 88/107/43
f 75/115/44 31/116/44 34/110/44 76/109/44
f 3/117/45 30/118/45 33/112/45 5/111/45
f 86/119/46 29/120/46 32/114/46 87/113/46
f 74/121/47 28/122/47 31/116/47 75/115/47
f 1/123/48 25/124/48 30/118/48 3/117/48
f 85/125/49 26/126/49 29/120/49 86/119/49
f 73/127/50 27/128/50 28/122/50 74/121/50
f 58/60/51 72/36/51 61/38/51 27/61/51
f 55/68/52 71/22/52 72/36/52 58/60/52
f 52/74/53 70/20/53 71/22/53 55/68/53
f 49/80/54 69/18/54 70/20/54 52/74/54
f 46/86/55 68/16/55 69/18/55 49/80/55
f 43/92/56 67/14/56 68/16/56 46/86/56
f 40/98/57 66/12/57 67/14/57 43/92/57
f 37/104/58 65/10/58 66/12/58 40/98/58
f 34/110/59 64/8/59 65/10/59 37/104/59
f 31/116/60 63/6/60 64/8/60 34/110/60
f 28/122/61 62/4/61 63/6/61 31/116/61
f 27/128/62 61/1/62 62/4/62 28/122/62
f 26/126/63 73/127/63 74/121/63 29/120/63
f 29/120/64 74/121/64 75/115/64 32/114/64
f 32/114/65 75/115/65 76/109/65 35/108/65
f 35/108/66 76/109/66 77/103/66 38/102/66
f 38/102/67 77/103/67 78/97/67 41/96/67
f 41/96/68 78/97/68 79/91/68 44/90/68
f 44/90/69 79/91/69 80/85/69 47/84/69
f 47/84/70 80/85/70 81/79/70 50/78/70
f 50/78/71 81/79/71 82/73/71 53/72/71
f 53/72/72 82/73/72 83/67/72 56/66/72
f 56/66/73 83/67/73 84/59/73 59/56/73
f 59/56/74 84/59/74 73/62/74 26/57/74
f 25/124/75 85/125/75 86/119/75 30/118/75
f 30/118/76 86/119/76 87/113/76 33/112/76
f 33/112/77 87/113/77 88/107/77 36/106/77
f 36/106/78 88/107/78 89/101/78 39/100/78
f 39/100/79 89/101/79 90/95/79 42/94/79
f 42/94/80 90/95/80 91/89/80 45/88/80
f 45/88/81 91/89/81 92/83/81 48/82/81
f 48/82/82 92/83/82 93/77/82 51/76/82
f 51/76/83 93/77/83 94/71/83 54/70/83
f 54/70/84 94/71/84 95/65/84 57/64/84
f 57/64/85 95/65/85 96/55/85 60/52/85
f 60/52/86 96/55/86 85/58/86 25/53/86
f 102/149/11 100/24/11 114/150/11 112/27/11 110/151/11 108/30/11 106/152/11 104/33/11
